<svg width="48" height="48" viewBox="0 0 48 48" fill="none" xmlns="http://www.w3.org/2000/svg">
<path d="M42.1284 17.9978H42.2814C43.1074 17.9978 43.8254 17.3401 43.9131 16.4547C44.4353 10.6651 42.5853 4.87553 38.8445 0.561008C38.2346 -0.143549 37.2128 -0.18823 36.5376 0.448197C35.8624 1.08464 35.8196 2.15101 36.4295 2.85557C39.5625 6.44211 41.1065 11.2781 40.6721 16.1375C40.5844 17.0677 41.237 17.9085 42.1508 18L42.1284 17.9978Z" fill="#4741A6"/>
<path d="M34.3559 15.2842C34.2598 16.1411 34.9749 16.9157 35.9761 17H36.1437C37.0488 17 37.8355 16.3941 37.9316 15.5783C38.3361 11.9173 36.9304 8.23665 34.1167 5.51684C33.4485 4.86775 32.3288 4.82659 31.589 5.41291C30.8493 5.99922 30.8024 6.98165 31.4706 7.63073C33.6161 9.70146 34.6888 12.484 34.3781 15.2862L34.3559 15.2842Z" fill="#4741A6"/>
<path d="M10.4426 0.447516C9.76981 -0.189032 8.75147 -0.142162 8.1437 0.560345C4.41377 4.85214 2.54985 10.6426 3.09259 16.4566C3.17999 17.3422 3.87312 18 4.7187 18H4.87115C5.7594 17.9085 6.40985 17.0697 6.34481 16.1372C5.91185 11.3004 7.45056 6.46367 10.5727 2.85311C11.1805 2.14844 11.1357 1.0819 10.465 0.445352L10.4426 0.447516Z" fill="#4741A6"/>
<path d="M10.8342 17H11.0018C11.9786 16.9157 12.6938 16.1432 12.6223 15.2844C12.3116 12.5021 13.3844 9.70026 15.5301 7.62975C16.1985 6.98074 16.1493 5.99844 15.4117 5.41217C14.6718 4.8259 13.5521 4.86907 12.8837 5.51608C10.0697 8.23561 8.66383 11.8943 9.06837 15.5765C9.16448 16.3922 9.92666 16.998 10.8565 16.998L10.8342 17Z" fill="#4741A6"/>
<path d="M29.0785 8.5902C27.6513 6.94941 25.6287 6 23.5197 6C21.4107 6 19.3903 6.94719 17.9609 8.5902C16.5336 10.231 15.8519 12.4505 16.0269 14.6484L17.2133 27.9895C17.5201 31.412 20.2223 34 23.4971 34C26.7697 34 29.4719 31.4098 29.7808 27.9895L30.9672 14.6484C31.1649 12.4289 30.4626 10.2332 29.0559 8.5902H29.0785ZM26.5082 27.6643C26.3537 29.3051 25.0809 30.532 23.5197 30.532C21.9606 30.532 20.6631 29.3073 20.5313 27.6643L19.3449 14.3233C19.2358 13.0748 19.6086 11.8501 20.4221 10.9246C21.2357 9.99905 22.3334 9.46802 23.5424 9.46802C24.7514 9.46802 25.8491 9.97739 26.6627 10.9246C27.4762 11.8718 27.849 13.0748 27.7399 14.3233L26.5535 27.6405L26.5082 27.6643Z" fill="#4741A6"/>
<path d="M23.5 36C19.9219 36 17 38.6972 17 42C17 45.3028 19.9219 48 23.5 48C27.0781 48 30 45.3028 30 42C30 38.6972 27.0781 36 23.5 36ZM23.5 44.8853C21.7778 44.8853 20.3976 43.5897 20.3976 42.0216C20.3976 40.4535 21.8012 39.1578 23.5 39.1578C25.1988 39.1578 26.6024 40.4535 26.6024 42.0216C26.6024 43.5897 25.1988 44.8853 23.5 44.8853Z" fill="#4741A6"/>
</svg>
