<svg width="48" height="48" viewBox="0 0 48 48" fill="none" xmlns="http://www.w3.org/2000/svg">
<path d="M24 2C15.1634 2 8 9.16344 8 18C8 23.6149 10.8918 28.5544 15.2666 31.4078C15.7206 31.7039 16 32.2092 16 32.7515V35C16 36.6569 17.3431 38 19 38H29C30.6569 38 32 36.6569 32 35V32.7515C32 32.2092 32.2794 31.7039 32.7334 31.4078C37.1082 28.5544 40 23.6149 40 18C40 9.16344 32.8366 2 24 2ZM30.9907 28.7274C29.7501 29.5365 29 30.9007 29 32.7515V34C29 34.5523 28.5523 35 28 35H20C19.4477 35 19 34.5523 19 34V32.7515C19 30.9007 18.2499 29.5365 17.0093 28.7274C13.4225 26.3884 11 22.4736 11 18C11 10.8203 16.8203 5 24 5C31.1797 5 37 10.8203 37 18C37 22.4736 34.5775 26.3884 30.9907 28.7274Z" fill="#B8801C"/>
<path d="M28 41H20C19.1716 41 18.5 41.6716 18.5 42.5C18.5 43.3284 19.1716 44 20 44H28C28.8284 44 29.5 43.3284 29.5 42.5C29.5 41.6716 28.8284 41 28 41Z" fill="#B8801C"/>
<path d="M26.5 45H21.5C20.6716 45 20 45.6716 20 46.5C20 47.3284 20.6716 48 21.5 48H26.5C27.3284 48 28 47.3284 28 46.5C28 45.6716 27.3284 45 26.5 45Z" fill="#B8801C"/>
<path d="M24 11C20.134 11 17 14.134 17 18C17 18.8284 17.6716 19.5 18.5 19.5C19.3284 19.5 20 18.8284 20 18C20 15.7909 21.7909 14 24 14C24.8284 14 25.5 13.3284 25.5 12.5C25.5 11.6716 24.8284 11 24 11Z" fill="#B8801C"/>
</svg>
