<svg width="48" height="48" viewBox="0 0 48 48" fill="none" xmlns="http://www.w3.org/2000/svg">
<path d="M46.2857 9H1.71429C1.25963 9 0.823594 9.18061 0.502103 9.5021C0.180612 9.82359 0 10.2596 0 10.7143V38.1429C0 38.5975 0.180612 39.0336 0.502103 39.355C0.823594 39.6765 1.25963 39.8571 1.71429 39.8571H46.2857C46.7404 39.8571 47.1764 39.6765 47.4979 39.355C47.8194 39.0336 48 38.5975 48 38.1429V10.7143C48 10.2596 47.8194 9.82359 47.4979 9.5021C47.1764 9.18061 46.7404 9 46.2857 9ZM44.5714 36.4286H3.42857V12.4286H44.5714V36.4286Z" fill="#4741A6"/>
<path d="M8.57143 26.1428H12V29.5714C12 30.0261 12.1806 30.4621 12.5021 30.7836C12.8236 31.1051 13.2596 31.2857 13.7143 31.2857C14.1689 31.2857 14.605 31.1051 14.9265 30.7836C15.248 30.4621 15.4286 30.0261 15.4286 29.5714V26.1428H18.8571C19.3118 26.1428 19.7478 25.9622 20.0693 25.6407C20.3908 25.3192 20.5714 24.8832 20.5714 24.4286C20.5714 23.9739 20.3908 23.5379 20.0693 23.2164C19.7478 22.8949 19.3118 22.7143 18.8571 22.7143H15.4286V19.2857C15.4286 18.831 15.248 18.395 14.9265 18.0735C14.605 17.752 14.1689 17.5714 13.7143 17.5714C13.2596 17.5714 12.8236 17.752 12.5021 18.0735C12.1806 18.395 12 18.831 12 19.2857V22.7143H8.57143C8.11677 22.7143 7.68073 22.8949 7.35924 23.2164C7.03775 23.5379 6.85714 23.9739 6.85714 24.4286C6.85714 24.8832 7.03775 25.3192 7.35924 25.6407C7.68073 25.9622 8.11677 26.1428 8.57143 26.1428Z" fill="#4741A6"/>
<path d="M25.7143 21H39.4286C39.8832 21 40.3193 20.8194 40.6408 20.4979C40.9622 20.1764 41.1429 19.7404 41.1429 19.2857C41.1429 18.831 40.9622 18.395 40.6408 18.0735C40.3193 17.752 39.8832 17.5714 39.4286 17.5714H25.7143C25.2596 17.5714 24.8236 17.752 24.5021 18.0735C24.1806 18.395 24 18.831 24 19.2857C24 19.7404 24.1806 20.1764 24.5021 20.4979C24.8236 20.8194 25.2596 21 25.7143 21Z" fill="#4741A6"/>
<path d="M25.7143 26.1429H39.4286C39.8832 26.1429 40.3193 25.9623 40.6408 25.6408C40.9622 25.3193 41.1429 24.8833 41.1429 24.4286C41.1429 23.974 40.9622 23.5379 40.6408 23.2165C40.3193 22.895 39.8832 22.7144 39.4286 22.7144H25.7143C25.2596 22.7144 24.8236 22.895 24.5021 23.2165C24.1806 23.5379 24 23.974 24 24.4286C24 24.8833 24.1806 25.3193 24.5021 25.6408C24.8236 25.9623 25.2596 26.1429 25.7143 26.1429Z" fill="#4741A6"/>
<path d="M25.7143 31.2857H33.3331C33.7877 31.2857 34.2238 31.1051 34.5453 30.7836C34.8668 30.4622 35.0474 30.0261 35.0474 29.5715C35.0474 29.1168 34.8668 28.6808 34.5453 28.3593C34.2238 28.0378 33.7877 27.8572 33.3331 27.8572H25.7143C25.2596 27.8572 24.8236 28.0378 24.5021 28.3593C24.1806 28.6808 24 29.1168 24 29.5715C24 30.0261 24.1806 30.4622 24.5021 30.7836C24.8236 31.1051 25.2596 31.2857 25.7143 31.2857Z" fill="#4741A6"/>
</svg>
