<svg width="48" height="48" viewBox="0 0 48 48" fill="none" xmlns="http://www.w3.org/2000/svg">
<path d="M24 48C10.7658 48 0 37.2342 0 24C0 10.7658 10.7658 0 24 0C37.2342 0 48 10.7658 48 24C48 37.2342 37.2342 48 24 48ZM24 3.2C12.5322 3.2 3.2 12.5322 3.2 24C3.2 35.4678 12.5322 44.8 24 44.8C35.4678 44.8 44.8 35.4678 44.8 24C44.8 12.5322 35.4678 3.2 24 3.2ZM21.932 31.532L36.332 17.132C36.958 16.506 36.958 15.496 36.332 14.87C35.706 14.244 34.696 14.244 34.07 14.87L20.802 28.138L15.534 22.87C14.908 22.244 13.898 22.244 13.272 22.87C12.646 23.496 12.646 24.506 13.272 25.132L19.672 31.532C19.984 31.844 20.394 32 20.804 32C21.214 32 21.624 31.844 21.936 31.532H21.932Z" fill="#4741A6"/>
</svg>
