<svg width="200" height="40" viewBox="0 0 200 40" fill="none" xmlns="http://www.w3.org/2000/svg">
<path d="M192.953 32.84V7.47477H199.193V32.84H192.953Z" fill="#4741A6"/>
<path d="M192.953 32.84V7.47477H199.193V32.84H192.953Z" fill="black" fill-opacity="0.2"/>
<path d="M178.029 33.1037C176.752 33.1037 175.627 32.8576 174.654 32.3654C173.682 31.8615 172.92 31.1759 172.369 30.3088C171.83 29.4298 171.561 28.4338 171.561 27.3205V27.3029C171.561 26.0959 171.859 25.0705 172.457 24.2267C173.066 23.383 173.945 22.7209 175.094 22.2404C176.242 21.7482 177.637 21.4494 179.277 21.3439L186.941 20.8517V24.4728L180.279 24.9298C179.412 24.9767 178.762 25.1759 178.328 25.5275C177.895 25.8673 177.678 26.3244 177.678 26.8986V26.9162C177.678 27.5138 177.906 27.9767 178.363 28.3048C178.832 28.6213 179.447 28.7795 180.209 28.7795C180.877 28.7795 181.463 28.6623 181.967 28.4279C182.482 28.1818 182.887 27.8478 183.18 27.4259C183.484 26.9923 183.637 26.5119 183.637 25.9845V20.1134C183.637 19.422 183.414 18.8771 182.969 18.4787C182.523 18.0685 181.873 17.8634 181.018 17.8634C180.174 17.8634 179.512 18.0334 179.031 18.3732C178.551 18.7131 178.258 19.1291 178.152 19.6213L178.117 19.797H172.492L172.51 19.5685C172.615 18.3146 173.025 17.2189 173.74 16.2814C174.455 15.3439 175.451 14.6115 176.729 14.0841C178.018 13.5568 179.553 13.2931 181.334 13.2931C183.045 13.2931 184.539 13.5627 185.816 14.1017C187.105 14.6408 188.102 15.3966 188.805 16.3693C189.52 17.342 189.877 18.4728 189.877 19.7619V32.84H183.637V30.133H183.514C183.15 30.7541 182.699 31.2873 182.16 31.7326C181.621 32.1779 181.006 32.5177 180.314 32.7521C179.623 32.9865 178.861 33.1037 178.029 33.1037Z" fill="#4741A6"/>
<path d="M178.029 33.1037C176.752 33.1037 175.627 32.8576 174.654 32.3654C173.682 31.8615 172.92 31.1759 172.369 30.3088C171.83 29.4298 171.561 28.4338 171.561 27.3205V27.3029C171.561 26.0959 171.859 25.0705 172.457 24.2267C173.066 23.383 173.945 22.7209 175.094 22.2404C176.242 21.7482 177.637 21.4494 179.277 21.3439L186.941 20.8517V24.4728L180.279 24.9298C179.412 24.9767 178.762 25.1759 178.328 25.5275C177.895 25.8673 177.678 26.3244 177.678 26.8986V26.9162C177.678 27.5138 177.906 27.9767 178.363 28.3048C178.832 28.6213 179.447 28.7795 180.209 28.7795C180.877 28.7795 181.463 28.6623 181.967 28.4279C182.482 28.1818 182.887 27.8478 183.18 27.4259C183.484 26.9923 183.637 26.5119 183.637 25.9845V20.1134C183.637 19.422 183.414 18.8771 182.969 18.4787C182.523 18.0685 181.873 17.8634 181.018 17.8634C180.174 17.8634 179.512 18.0334 179.031 18.3732C178.551 18.7131 178.258 19.1291 178.152 19.6213L178.117 19.797H172.492L172.51 19.5685C172.615 18.3146 173.025 17.2189 173.74 16.2814C174.455 15.3439 175.451 14.6115 176.729 14.0841C178.018 13.5568 179.553 13.2931 181.334 13.2931C183.045 13.2931 184.539 13.5627 185.816 14.1017C187.105 14.6408 188.102 15.3966 188.805 16.3693C189.52 17.342 189.877 18.4728 189.877 19.7619V32.84H183.637V30.133H183.514C183.15 30.7541 182.699 31.2873 182.16 31.7326C181.621 32.1779 181.006 32.5177 180.314 32.7521C179.623 32.9865 178.861 33.1037 178.029 33.1037Z" fill="black" fill-opacity="0.2"/>
<path d="M150.59 32.84V13.6974H156.83V17.0724H156.953C157.445 15.8654 158.178 14.9338 159.15 14.2775C160.123 13.6213 161.33 13.2931 162.771 13.2931C164.881 13.2931 166.504 13.9318 167.641 15.2091C168.789 16.4748 169.363 18.2443 169.363 20.5177V32.84H163.123V21.8537C163.123 20.7638 162.865 19.9142 162.35 19.3048C161.834 18.6838 161.066 18.3732 160.047 18.3732C159.391 18.3732 158.822 18.5256 158.342 18.8302C157.861 19.1349 157.486 19.5568 157.217 20.0959C156.959 20.6349 156.83 21.2619 156.83 21.9767V32.84H150.59Z" fill="#4741A6"/>
<path d="M150.59 32.84V13.6974H156.83V17.0724H156.953C157.445 15.8654 158.178 14.9338 159.15 14.2775C160.123 13.6213 161.33 13.2931 162.771 13.2931C164.881 13.2931 166.504 13.9318 167.641 15.2091C168.789 16.4748 169.363 18.2443 169.363 20.5177V32.84H163.123V21.8537C163.123 20.7638 162.865 19.9142 162.35 19.3048C161.834 18.6838 161.066 18.3732 160.047 18.3732C159.391 18.3732 158.822 18.5256 158.342 18.8302C157.861 19.1349 157.486 19.5568 157.217 20.0959C156.959 20.6349 156.83 21.2619 156.83 21.9767V32.84H150.59Z" fill="black" fill-opacity="0.2"/>
<path d="M137.74 39.3966C135.9 39.3966 134.295 39.1506 132.924 38.6584C131.564 38.1662 130.486 37.4923 129.689 36.6369C128.893 35.7814 128.424 34.8205 128.283 33.7541L128.266 33.5959H134.295L134.33 33.7013C134.494 34.0646 134.863 34.4103 135.438 34.7384C136.012 35.0666 136.791 35.2306 137.775 35.2306C138.947 35.2306 139.826 34.967 140.412 34.4396C141.01 33.9123 141.309 33.2209 141.309 32.3654V29.1838H141.186C140.881 29.84 140.447 30.4025 139.885 30.8713C139.322 31.34 138.66 31.7033 137.898 31.9611C137.137 32.2189 136.293 32.3478 135.367 32.3478C133.773 32.3478 132.408 31.9787 131.271 31.2404C130.146 30.5021 129.285 29.4416 128.688 28.0588C128.09 26.6642 127.791 24.9826 127.791 23.0138V22.9963C127.791 20.922 128.096 19.1701 128.705 17.7404C129.314 16.299 130.188 15.1974 131.324 14.4357C132.461 13.674 133.838 13.2931 135.455 13.2931C136.357 13.2931 137.178 13.4455 137.916 13.7502C138.666 14.0431 139.316 14.465 139.867 15.0158C140.418 15.5666 140.852 16.2228 141.168 16.9845H141.309V13.6974H147.549V32.2951C147.549 33.6896 147.15 34.9201 146.354 35.9865C145.557 37.0529 144.426 37.8849 142.961 38.4826C141.496 39.092 139.756 39.3966 137.74 39.3966ZM137.74 28.0236C138.467 28.0236 139.1 27.8302 139.639 27.4435C140.178 27.0568 140.594 26.506 140.887 25.7912C141.191 25.0646 141.344 24.2033 141.344 23.2072V23.1896C141.344 22.1818 141.191 21.3205 140.887 20.6056C140.582 19.8791 140.16 19.3283 139.621 18.9533C139.094 18.5666 138.467 18.3732 137.74 18.3732C137.014 18.3732 136.375 18.5666 135.824 18.9533C135.285 19.3283 134.863 19.8732 134.559 20.5881C134.266 21.3029 134.119 22.1642 134.119 23.172V23.1896C134.119 24.1857 134.266 25.047 134.559 25.7736C134.852 26.5002 135.273 27.0568 135.824 27.4435C136.375 27.8302 137.014 28.0236 137.74 28.0236Z" fill="#4741A6"/>
<path d="M137.74 39.3966C135.9 39.3966 134.295 39.1506 132.924 38.6584C131.564 38.1662 130.486 37.4923 129.689 36.6369C128.893 35.7814 128.424 34.8205 128.283 33.7541L128.266 33.5959H134.295L134.33 33.7013C134.494 34.0646 134.863 34.4103 135.438 34.7384C136.012 35.0666 136.791 35.2306 137.775 35.2306C138.947 35.2306 139.826 34.967 140.412 34.4396C141.01 33.9123 141.309 33.2209 141.309 32.3654V29.1838H141.186C140.881 29.84 140.447 30.4025 139.885 30.8713C139.322 31.34 138.66 31.7033 137.898 31.9611C137.137 32.2189 136.293 32.3478 135.367 32.3478C133.773 32.3478 132.408 31.9787 131.271 31.2404C130.146 30.5021 129.285 29.4416 128.688 28.0588C128.09 26.6642 127.791 24.9826 127.791 23.0138V22.9963C127.791 20.922 128.096 19.1701 128.705 17.7404C129.314 16.299 130.188 15.1974 131.324 14.4357C132.461 13.674 133.838 13.2931 135.455 13.2931C136.357 13.2931 137.178 13.4455 137.916 13.7502C138.666 14.0431 139.316 14.465 139.867 15.0158C140.418 15.5666 140.852 16.2228 141.168 16.9845H141.309V13.6974H147.549V32.2951C147.549 33.6896 147.15 34.9201 146.354 35.9865C145.557 37.0529 144.426 37.8849 142.961 38.4826C141.496 39.092 139.756 39.3966 137.74 39.3966ZM137.74 28.0236C138.467 28.0236 139.1 27.8302 139.639 27.4435C140.178 27.0568 140.594 26.506 140.887 25.7912C141.191 25.0646 141.344 24.2033 141.344 23.2072V23.1896C141.344 22.1818 141.191 21.3205 140.887 20.6056C140.582 19.8791 140.16 19.3283 139.621 18.9533C139.094 18.5666 138.467 18.3732 137.74 18.3732C137.014 18.3732 136.375 18.5666 135.824 18.9533C135.285 19.3283 134.863 19.8732 134.559 20.5881C134.266 21.3029 134.119 22.1642 134.119 23.172V23.1896C134.119 24.1857 134.266 25.047 134.559 25.7736C134.852 26.5002 135.273 27.0568 135.824 27.4435C136.375 27.8302 137.014 28.0236 137.74 28.0236Z" fill="black" fill-opacity="0.2"/>
<path d="M119.072 32.84V13.6974H125.312V32.84H119.072ZM122.184 11.6408C121.293 11.6408 120.537 11.3361 119.916 10.7267C119.307 10.1173 119.002 9.39664 119.002 8.56461C119.002 7.72086 119.307 7.00016 119.916 6.4025C120.537 5.79313 121.293 5.48844 122.184 5.48844C123.086 5.48844 123.842 5.79313 124.451 6.4025C125.061 7.00016 125.365 7.72086 125.365 8.56461C125.365 9.39664 125.061 10.1173 124.451 10.7267C123.842 11.3361 123.086 11.6408 122.184 11.6408Z" fill="#4741A6"/>
<path d="M119.072 32.84V13.6974H125.312V32.84H119.072ZM122.184 11.6408C121.293 11.6408 120.537 11.3361 119.916 10.7267C119.307 10.1173 119.002 9.39664 119.002 8.56461C119.002 7.72086 119.307 7.00016 119.916 6.4025C120.537 5.79313 121.293 5.48844 122.184 5.48844C123.086 5.48844 123.842 5.79313 124.451 6.4025C125.061 7.00016 125.365 7.72086 125.365 8.56461C125.365 9.39664 125.061 10.1173 124.451 10.7267C123.842 11.3361 123.086 11.6408 122.184 11.6408Z" fill="black" fill-opacity="0.2"/>
<path d="M97.0673 34.16C96.4006 34.16 95.8539 33.9733 95.4273 33.6C95.0273 33.2533 94.8273 32.8667 94.8273 32.44C94.8273 31.96 94.8939 31.6 95.0273 31.36C95.1873 31.0933 95.5206 30.9067 96.0273 30.8C97.2806 30.5067 98.5739 30.16 99.9073 29.76C101.267 29.3333 102.534 28.8933 103.707 28.44C104.881 27.96 105.827 27.4933 106.547 27.04C107.294 26.5867 107.667 26.1867 107.667 25.84C107.667 25.52 107.374 25.2133 106.787 24.92C106.201 24.6 105.454 24.2533 104.547 23.88C103.641 23.5067 102.667 23.0933 101.627 22.64C100.587 22.1867 99.6139 21.6667 98.7073 21.08C97.8006 20.4933 97.0539 19.8267 96.4673 19.08C95.8806 18.3067 95.5873 17.4267 95.5873 16.44C95.5873 14.8933 95.9606 13.4533 96.7073 12.12C97.4806 10.76 98.4806 9.50667 99.7073 8.36C100.934 7.21333 102.281 6.16 103.747 5.2C105.241 4.21333 106.707 3.34667 108.147 2.6C109.614 1.82667 110.921 1.14667 112.067 0.56C112.441 0.346667 112.801 0.2 113.147 0.120001C113.494 0.0400003 113.801 0 114.067 0C114.841 0 115.401 0.173333 115.747 0.52C116.094 0.866667 116.267 1.26667 116.267 1.72C116.267 2.09333 116.067 2.53333 115.667 3.04C115.267 3.52 114.694 3.94667 113.947 4.32C113.201 4.69333 112.307 4.88 111.267 4.88H110.947C110.041 5.36 109.054 5.93333 107.987 6.6C106.921 7.26667 105.867 8 104.827 8.8C103.787 9.6 102.827 10.4267 101.947 11.28C101.094 12.1067 100.401 12.9067 99.8673 13.68C99.3606 14.4533 99.1073 15.16 99.1073 15.8C99.1073 16.5733 99.4006 17.2667 99.9873 17.88C100.574 18.4933 101.321 19.04 102.227 19.52C103.161 20 104.134 20.4667 105.147 20.92C106.187 21.3733 107.161 21.84 108.067 22.32C109.001 22.7733 109.761 23.28 110.347 23.84C110.934 24.3733 111.227 25 111.227 25.72C111.227 26.5467 110.934 27.3333 110.347 28.08C109.787 28.8267 109.041 29.52 108.107 30.16C107.174 30.7733 106.147 31.3333 105.027 31.84C103.934 32.32 102.854 32.7333 101.787 33.08C100.721 33.4267 99.7606 33.6933 98.9073 33.88C98.0806 34.0667 97.4673 34.16 97.0673 34.16Z" fill="#4741A6"/>
<path d="M97.0673 34.16C96.4006 34.16 95.8539 33.9733 95.4273 33.6C95.0273 33.2533 94.8273 32.8667 94.8273 32.44C94.8273 31.96 94.8939 31.6 95.0273 31.36C95.1873 31.0933 95.5206 30.9067 96.0273 30.8C97.2806 30.5067 98.5739 30.16 99.9073 29.76C101.267 29.3333 102.534 28.8933 103.707 28.44C104.881 27.96 105.827 27.4933 106.547 27.04C107.294 26.5867 107.667 26.1867 107.667 25.84C107.667 25.52 107.374 25.2133 106.787 24.92C106.201 24.6 105.454 24.2533 104.547 23.88C103.641 23.5067 102.667 23.0933 101.627 22.64C100.587 22.1867 99.6139 21.6667 98.7073 21.08C97.8006 20.4933 97.0539 19.8267 96.4673 19.08C95.8806 18.3067 95.5873 17.4267 95.5873 16.44C95.5873 14.8933 95.9606 13.4533 96.7073 12.12C97.4806 10.76 98.4806 9.50667 99.7073 8.36C100.934 7.21333 102.281 6.16 103.747 5.2C105.241 4.21333 106.707 3.34667 108.147 2.6C109.614 1.82667 110.921 1.14667 112.067 0.56C112.441 0.346667 112.801 0.2 113.147 0.120001C113.494 0.0400003 113.801 0 114.067 0C114.841 0 115.401 0.173333 115.747 0.52C116.094 0.866667 116.267 1.26667 116.267 1.72C116.267 2.09333 116.067 2.53333 115.667 3.04C115.267 3.52 114.694 3.94667 113.947 4.32C113.201 4.69333 112.307 4.88 111.267 4.88H110.947C110.041 5.36 109.054 5.93333 107.987 6.6C106.921 7.26667 105.867 8 104.827 8.8C103.787 9.6 102.827 10.4267 101.947 11.28C101.094 12.1067 100.401 12.9067 99.8673 13.68C99.3606 14.4533 99.1073 15.16 99.1073 15.8C99.1073 16.5733 99.4006 17.2667 99.9873 17.88C100.574 18.4933 101.321 19.04 102.227 19.52C103.161 20 104.134 20.4667 105.147 20.92C106.187 21.3733 107.161 21.84 108.067 22.32C109.001 22.7733 109.761 23.28 110.347 23.84C110.934 24.3733 111.227 25 111.227 25.72C111.227 26.5467 110.934 27.3333 110.347 28.08C109.787 28.8267 109.041 29.52 108.107 30.16C107.174 30.7733 106.147 31.3333 105.027 31.84C103.934 32.32 102.854 32.7333 101.787 33.08C100.721 33.4267 99.7606 33.6933 98.9073 33.88C98.0806 34.0667 97.4673 34.16 97.0673 34.16Z" fill="black" fill-opacity="0.2"/>
<path d="M77.2734 32.84V13.6974H83.5137V17.09H83.6367C83.9062 15.8713 84.4043 14.9338 85.1309 14.2775C85.8691 13.6213 86.8066 13.2931 87.9434 13.2931C88.2363 13.2931 88.5176 13.3166 88.7871 13.3634C89.0684 13.3986 89.3262 13.4572 89.5605 13.5392V18.883C89.3027 18.7658 88.998 18.6779 88.6465 18.6193C88.3066 18.5607 87.9492 18.5314 87.5742 18.5314C86.6953 18.5314 85.9512 18.6896 85.3418 19.006C84.7441 19.3224 84.2871 19.7912 83.9707 20.4123C83.666 21.0216 83.5137 21.7775 83.5137 22.6798V32.84H77.2734Z" fill="#4741A6"/>
<path d="M77.2734 32.84V13.6974H83.5137V17.09H83.6367C83.9062 15.8713 84.4043 14.9338 85.1309 14.2775C85.8691 13.6213 86.8066 13.2931 87.9434 13.2931C88.2363 13.2931 88.5176 13.3166 88.7871 13.3634C89.0684 13.3986 89.3262 13.4572 89.5605 13.5392V18.883C89.3027 18.7658 88.998 18.6779 88.6465 18.6193C88.3066 18.5607 87.9492 18.5314 87.5742 18.5314C86.6953 18.5314 85.9512 18.6896 85.3418 19.006C84.7441 19.3224 84.2871 19.7912 83.9707 20.4123C83.666 21.0216 83.5137 21.7775 83.5137 22.6798V32.84H77.2734Z" fill="black" fill-opacity="0.2"/>
<path d="M62.4551 33.1037C61.1777 33.1037 60.0527 32.8576 59.0801 32.3654C58.1074 31.8615 57.3457 31.1759 56.7949 30.3088C56.2559 29.4298 55.9863 28.4338 55.9863 27.3205V27.3029C55.9863 26.0959 56.2852 25.0705 56.8828 24.2267C57.4922 23.383 58.3711 22.7209 59.5195 22.2404C60.668 21.7482 62.0625 21.4494 63.7031 21.3439L71.3672 20.8517V24.4728L64.7051 24.9298C63.8379 24.9767 63.1875 25.1759 62.7539 25.5275C62.3203 25.8673 62.1035 26.3244 62.1035 26.8986V26.9162C62.1035 27.5138 62.332 27.9767 62.7891 28.3048C63.2578 28.6213 63.873 28.7795 64.6348 28.7795C65.3027 28.7795 65.8887 28.6623 66.3926 28.4279C66.9082 28.1818 67.3125 27.8478 67.6055 27.4259C67.9102 26.9923 68.0625 26.5119 68.0625 25.9845V20.1134C68.0625 19.422 67.8398 18.8771 67.3945 18.4787C66.9492 18.0685 66.2988 17.8634 65.4434 17.8634C64.5996 17.8634 63.9375 18.0334 63.457 18.3732C62.9766 18.7131 62.6836 19.1291 62.5781 19.6213L62.543 19.797H56.918L56.9355 19.5685C57.041 18.3146 57.4512 17.2189 58.166 16.2814C58.8809 15.3439 59.877 14.6115 61.1543 14.0841C62.4434 13.5568 63.9785 13.2931 65.7598 13.2931C67.4707 13.2931 68.9648 13.5627 70.2422 14.1017C71.5312 14.6408 72.5273 15.3966 73.2305 16.3693C73.9453 17.342 74.3027 18.4728 74.3027 19.7619V32.84H68.0625V30.133H67.9395C67.5762 30.7541 67.125 31.2873 66.5859 31.7326C66.0469 32.1779 65.4316 32.5177 64.7402 32.7521C64.0488 32.9865 63.2871 33.1037 62.4551 33.1037Z" fill="#4741A6"/>
<path d="M62.4551 33.1037C61.1777 33.1037 60.0527 32.8576 59.0801 32.3654C58.1074 31.8615 57.3457 31.1759 56.7949 30.3088C56.2559 29.4298 55.9863 28.4338 55.9863 27.3205V27.3029C55.9863 26.0959 56.2852 25.0705 56.8828 24.2267C57.4922 23.383 58.3711 22.7209 59.5195 22.2404C60.668 21.7482 62.0625 21.4494 63.7031 21.3439L71.3672 20.8517V24.4728L64.7051 24.9298C63.8379 24.9767 63.1875 25.1759 62.7539 25.5275C62.3203 25.8673 62.1035 26.3244 62.1035 26.8986V26.9162C62.1035 27.5138 62.332 27.9767 62.7891 28.3048C63.2578 28.6213 63.873 28.7795 64.6348 28.7795C65.3027 28.7795 65.8887 28.6623 66.3926 28.4279C66.9082 28.1818 67.3125 27.8478 67.6055 27.4259C67.9102 26.9923 68.0625 26.5119 68.0625 25.9845V20.1134C68.0625 19.422 67.8398 18.8771 67.3945 18.4787C66.9492 18.0685 66.2988 17.8634 65.4434 17.8634C64.5996 17.8634 63.9375 18.0334 63.457 18.3732C62.9766 18.7131 62.6836 19.1291 62.5781 19.6213L62.543 19.797H56.918L56.9355 19.5685C57.041 18.3146 57.4512 17.2189 58.166 16.2814C58.8809 15.3439 59.877 14.6115 61.1543 14.0841C62.4434 13.5568 63.9785 13.2931 65.7598 13.2931C67.4707 13.2931 68.9648 13.5627 70.2422 14.1017C71.5312 14.6408 72.5273 15.3966 73.2305 16.3693C73.9453 17.342 74.3027 18.4728 74.3027 19.7619V32.84H68.0625V30.133H67.9395C67.5762 30.7541 67.125 31.2873 66.5859 31.7326C66.0469 32.1779 65.4316 32.5177 64.7402 32.7521C64.0488 32.9865 63.2871 33.1037 62.4551 33.1037Z" fill="black" fill-opacity="0.2"/>
<path d="M45.0352 33.2443C43.0195 33.2443 41.2852 32.8459 39.832 32.049C38.3789 31.2404 37.2598 30.092 36.4746 28.6037C35.7012 27.1154 35.3145 25.34 35.3145 23.2775V23.2599C35.3145 21.2091 35.7012 19.4396 36.4746 17.9513C37.2598 16.4631 38.3613 15.3146 39.7793 14.506C41.209 13.6974 42.8906 13.2931 44.8242 13.2931C46.7578 13.2931 48.4336 13.6916 49.8516 14.4884C51.2695 15.2736 52.3652 16.3869 53.1387 17.8283C53.9121 19.258 54.2988 20.9396 54.2988 22.8732V24.7013H38.373V21.0099H51.3809L48.4805 24.4728V22.0646C48.4805 21.1388 48.334 20.3537 48.041 19.7091C47.748 19.0529 47.3379 18.5607 46.8105 18.2326C46.2832 17.8927 45.668 17.7228 44.9648 17.7228C44.2617 17.7228 43.6406 17.8927 43.1016 18.2326C42.5742 18.5724 42.1641 19.0705 41.8711 19.7267C41.5781 20.3713 41.4316 21.1506 41.4316 22.0646V24.4904C41.4316 25.3927 41.5781 26.1662 41.8711 26.8107C42.1758 27.4552 42.6035 27.9533 43.1543 28.3048C43.7168 28.6447 44.3848 28.8146 45.1582 28.8146C45.8262 28.8146 46.3945 28.7091 46.8633 28.4982C47.332 28.2873 47.7012 28.0295 47.9707 27.7248C48.252 27.4201 48.4395 27.133 48.5332 26.8634L48.5508 26.7931H54.1758L54.123 27.0041C53.9824 27.672 53.7129 28.3693 53.3145 29.0959C52.916 29.8107 52.3594 30.4845 51.6445 31.1173C50.9414 31.7502 50.0449 32.2658 48.9551 32.6642C47.877 33.0509 46.5703 33.2443 45.0352 33.2443Z" fill="#4741A6"/>
<path d="M45.0352 33.2443C43.0195 33.2443 41.2852 32.8459 39.832 32.049C38.3789 31.2404 37.2598 30.092 36.4746 28.6037C35.7012 27.1154 35.3145 25.34 35.3145 23.2775V23.2599C35.3145 21.2091 35.7012 19.4396 36.4746 17.9513C37.2598 16.4631 38.3613 15.3146 39.7793 14.506C41.209 13.6974 42.8906 13.2931 44.8242 13.2931C46.7578 13.2931 48.4336 13.6916 49.8516 14.4884C51.2695 15.2736 52.3652 16.3869 53.1387 17.8283C53.9121 19.258 54.2988 20.9396 54.2988 22.8732V24.7013H38.373V21.0099H51.3809L48.4805 24.4728V22.0646C48.4805 21.1388 48.334 20.3537 48.041 19.7091C47.748 19.0529 47.3379 18.5607 46.8105 18.2326C46.2832 17.8927 45.668 17.7228 44.9648 17.7228C44.2617 17.7228 43.6406 17.8927 43.1016 18.2326C42.5742 18.5724 42.1641 19.0705 41.8711 19.7267C41.5781 20.3713 41.4316 21.1506 41.4316 22.0646V24.4904C41.4316 25.3927 41.5781 26.1662 41.8711 26.8107C42.1758 27.4552 42.6035 27.9533 43.1543 28.3048C43.7168 28.6447 44.3848 28.8146 45.1582 28.8146C45.8262 28.8146 46.3945 28.7091 46.8633 28.4982C47.332 28.2873 47.7012 28.0295 47.9707 27.7248C48.252 27.4201 48.4395 27.133 48.5332 26.8634L48.5508 26.7931H54.1758L54.123 27.0041C53.9824 27.672 53.7129 28.3693 53.3145 29.0959C52.916 29.8107 52.3594 30.4845 51.6445 31.1173C50.9414 31.7502 50.0449 32.2658 48.9551 32.6642C47.877 33.0509 46.5703 33.2443 45.0352 33.2443Z" fill="black" fill-opacity="0.2"/>
<path d="M26.543 32.84V7.47477H32.7832V32.84H26.543Z" fill="#4741A6"/>
<path d="M26.543 32.84V7.47477H32.7832V32.84H26.543Z" fill="black" fill-opacity="0.2"/>
<path d="M12.3398 33.297C9.80859 33.297 7.61719 32.7756 5.76562 31.7326C3.92578 30.6896 2.50195 29.1896 1.49414 27.2326C0.498047 25.2638 0 22.9025 0 20.1486V20.131C0 17.3771 0.503906 15.0216 1.51172 13.0646C2.51953 11.1076 3.94336 9.61344 5.7832 8.58219C7.63477 7.53922 9.82031 7.01774 12.3398 7.01774C14.5547 7.01774 16.5059 7.45133 18.1934 8.31852C19.8926 9.18571 21.2285 10.3693 22.2012 11.8693C23.1855 13.3693 23.7129 15.0685 23.7832 16.967L23.8008 17.1252H17.5781L17.543 16.8791C17.4023 15.9884 17.1094 15.2091 16.6641 14.5412C16.2305 13.8615 15.6504 13.3283 14.9238 12.9416C14.1973 12.5548 13.3359 12.3615 12.3398 12.3615C11.168 12.3615 10.1484 12.672 9.28125 13.2931C8.42578 13.9142 7.76367 14.8048 7.29492 15.965C6.82617 17.1134 6.5918 18.4963 6.5918 20.1134V20.131C6.5918 21.7599 6.82617 23.1603 7.29492 24.3322C7.76367 25.5041 8.43164 26.4006 9.29883 27.0216C10.166 27.6427 11.1855 27.9533 12.3574 27.9533C13.2949 27.9533 14.127 27.7716 14.8535 27.4084C15.5801 27.0334 16.1777 26.506 16.6465 25.8263C17.1152 25.1349 17.4258 24.3146 17.5781 23.3654L17.6133 23.1896H23.8184V23.383C23.7363 25.2697 23.1973 26.9631 22.2012 28.4631C21.2168 29.9513 19.875 31.1291 18.1758 31.9963C16.4883 32.8634 14.543 33.297 12.3398 33.297Z" fill="#4741A6"/>
<path d="M12.3398 33.297C9.80859 33.297 7.61719 32.7756 5.76562 31.7326C3.92578 30.6896 2.50195 29.1896 1.49414 27.2326C0.498047 25.2638 0 22.9025 0 20.1486V20.131C0 17.3771 0.503906 15.0216 1.51172 13.0646C2.51953 11.1076 3.94336 9.61344 5.7832 8.58219C7.63477 7.53922 9.82031 7.01774 12.3398 7.01774C14.5547 7.01774 16.5059 7.45133 18.1934 8.31852C19.8926 9.18571 21.2285 10.3693 22.2012 11.8693C23.1855 13.3693 23.7129 15.0685 23.7832 16.967L23.8008 17.1252H17.5781L17.543 16.8791C17.4023 15.9884 17.1094 15.2091 16.6641 14.5412C16.2305 13.8615 15.6504 13.3283 14.9238 12.9416C14.1973 12.5548 13.3359 12.3615 12.3398 12.3615C11.168 12.3615 10.1484 12.672 9.28125 13.2931C8.42578 13.9142 7.76367 14.8048 7.29492 15.965C6.82617 17.1134 6.5918 18.4963 6.5918 20.1134V20.131C6.5918 21.7599 6.82617 23.1603 7.29492 24.3322C7.76367 25.5041 8.43164 26.4006 9.29883 27.0216C10.166 27.6427 11.1855 27.9533 12.3574 27.9533C13.2949 27.9533 14.127 27.7716 14.8535 27.4084C15.5801 27.0334 16.1777 26.506 16.6465 25.8263C17.1152 25.1349 17.4258 24.3146 17.5781 23.3654L17.6133 23.1896H23.8184V23.383C23.7363 25.2697 23.1973 26.9631 22.2012 28.4631C21.2168 29.9513 19.875 31.1291 18.1758 31.9963C16.4883 32.8634 14.543 33.297 12.3398 33.297Z" fill="black" fill-opacity="0.2"/>
</svg>
