<svg width="48" height="48" viewBox="0 0 48 48" fill="none" xmlns="http://www.w3.org/2000/svg">
<path fill-rule="evenodd" clip-rule="evenodd" d="M7 46H39C40.657 46 42 44.657 42 43V26H43C44.657 26 46 24.657 46 23V21C46 20.15 45.639 19.339 45.007 18.77L25.007 0.770006C23.866 -0.256994 22.134 -0.256994 20.993 0.770006L0.993011 18.77C0.361011 19.339 0 20.15 0 21V23C0 24.657 1.343 26 3 26H4V43C4 44.657 5.343 46 7 46ZM30 44H39C39.552 44 40 43.552 40 43V25C40 24.735 40.105 24.48 40.293 24.293C40.48 24.105 40.735 24 41 24H43C43.552 24 44 23.552 44 23V21C44 20.717 43.88 20.446 43.669 20.257L23.669 2.25701C23.289 1.91401 22.711 1.91401 22.331 2.25701L2.33099 20.257C2.11999 20.446 2 20.717 2 21V23C2 23.552 2.448 24 3 24H5C5.552 24 6 24.448 6 25V43C6 43.552 6.448 44 7 44H16V31C16 29.343 17.343 28 19 28H27C28.657 28 30 29.343 30 31V44ZM28 44H18V31C18 30.448 18.448 30 19 30H27C27.552 30 28 30.448 28 31V44Z" fill="#4741A6"/>
</svg>
