<svg width="48" height="48" viewBox="0 0 48 48" fill="none" xmlns="http://www.w3.org/2000/svg">
<path d="M36.7779 39.8896C36.7779 43.223 34.1112 45.8897 30.7778 45.8897H11.222C7.88861 45.8897 5.2219 43.223 5.2219 39.8896V8.33356C5.2219 5.00018 7.88861 2.33347 11.222 2.33347H30.6669C33.0002 2.33347 35.0003 3.66683 36.0003 5.55571L37.667 3.88898C36.2226 1.55565 33.5559 0 30.6669 0H11.222C6.6664 0 3 3.66668 3 8.22199V39.778C3 44.3336 6.66669 48 11.222 48H30.7778C35.3334 48 38.9998 44.3333 38.9998 39.778V31.8888L36.7776 34.1111L36.7779 39.8896Z" fill="#4741A6"/>
<path d="M42.8886 21.6664L32.9997 31.5552L24.6661 23.2216L44.7773 3.11035C45.2218 2.6659 45.2218 1.99922 44.7773 1.55477C44.3329 1.11032 43.6662 1.11032 43.2218 1.55477L22.2216 22.5549C22.1105 22.666 21.9994 22.7771 21.9994 22.8882C21.8883 22.9994 21.8883 23.2216 21.8883 23.3327V32.1108C21.8883 33.3331 22.8883 34.333 24.1105 34.333H32.8886C32.9997 34.333 33.222 34.333 33.3331 34.2219C33.4442 34.1108 33.5553 34.1108 33.6664 33.9997L44.4442 23.2219C44.8886 22.7775 44.8886 22.1108 44.4442 21.6664C43.9997 21.2219 43.333 21.2219 42.8886 21.6664ZM24.1107 31.9997V25.8884L30.2219 31.9997H24.1107Z" fill="#4741A6"/>
<path d="M17.7775 32.1113H8.55493C7.88825 32.1113 7.4438 32.5558 7.4438 33.2225C7.4438 33.8891 7.88825 34.3336 8.55493 34.3336H17.7775C18.4441 34.3336 18.8886 33.8891 18.8886 33.2225C18.8886 32.5558 18.4441 32.1113 17.7775 32.1113Z" fill="#4741A6"/>
<path d="M17.7775 26.2225H8.55493C7.88825 26.2225 7.4438 26.667 7.4438 27.3337C7.4438 28.0003 7.88825 28.4448 8.55493 28.4448H17.7775C18.4441 28.4448 18.8886 28.0003 18.8886 27.3337C18.8886 26.667 18.4441 26.2225 17.7775 26.2225Z" fill="#4741A6"/>
</svg>
