<svg width="48" height="48" viewBox="0 0 48 48" fill="none" xmlns="http://www.w3.org/2000/svg">
<path d="M24 1C10.7646 1 0 11.5403 0 24.5C0 37.4597 10.7646 48 24 48C37.2354 48 48 37.4597 48 24.5C48 11.5403 37.2354 1 24 1ZM24 45.65C12.0888 45.65 2.4 36.163 2.4 24.5C2.4 12.8369 12.0888 3.35 24 3.35C35.9112 3.35 45.6 12.8369 45.6 24.5C45.6 36.163 35.9112 45.65 24 45.65Z" fill="#4741A6"/>
<path d="M23.9967 9C18.9129 9 17.2018 13.2346 17.0048 15.4769C16.949 16.122 17.3886 16.6825 17.9868 16.7489C18.585 16.8129 19.1232 16.3439 19.1897 15.701C19.2326 15.2549 19.745 11.3429 23.999 11.3429C25.6351 11.3429 26.9473 11.8531 27.7921 12.8185C28.4997 13.626 28.8685 14.7448 28.7956 15.8818C28.6862 17.6159 28.1201 18.6454 25.1505 20.9949C24.4043 21.5874 22.6032 23.3147 22.0607 26.6228C21.9557 27.261 22.3524 27.865 22.9506 27.9817C23.017 27.9931 23.0771 28 23.1436 28C23.6646 28 24.132 27.6019 24.2242 27.0346C24.6359 24.5569 25.9267 23.3033 26.4585 22.8824C29.4389 20.5214 30.8004 18.9749 30.9869 16.0418C31.0963 14.2619 30.5152 12.5049 29.396 11.2215C28.5062 10.208 26.8551 9.007 24.0013 9.007L23.9967 9Z" fill="#4741A6"/>
<path d="M23.5 32C22.6722 32 22 32.8996 22 34C22 35.1037 22.6747 36 23.5 36C24.3278 36 25 35.1004 25 34C25 32.8963 24.3253 32 23.5 32Z" fill="#4741A6"/>
</svg>
