<svg width="48" height="48" viewBox="0 0 48 48" fill="none" xmlns="http://www.w3.org/2000/svg">
<path d="M48 43.5667C48 44.359 47.3686 45 46.5882 45H1.39248C1.30184 44.9988 1.22324 44.9617 1.1376 44.9438C1.0416 44.9239 0.94063 44.9197 0.852903 44.8812C0.788103 44.8527 0.739849 44.8011 0.680555 44.7635C0.585261 44.7033 0.484772 44.6511 0.406532 44.5703C0.362428 44.5248 0.339501 44.4631 0.301581 44.4121C0.230937 44.3166 0.154221 44.2258 0.108565 44.1138C0.0765176 44.0355 0.0761791 43.9447 0.0582497 43.8602C0.0375815 43.7624 0 43.6709 0 43.5667V3.43551C0 2.64329 0.631426 2.00225 1.41176 2.00225C2.1921 2.00225 2.82353 2.64329 2.82353 3.43551V39.1748C3.16165 39.1371 3.53734 39.089 3.99264 39.0122C4.74262 38.8778 5.48713 39.4069 5.61673 40.1907C5.74633 40.9689 5.22519 41.708 4.45589 41.8396C3.80775 41.9499 3.2773 42.0129 2.82356 42.0563V42.0861C8.28502 41.779 28.7564 39.4871 45.5928 22.485C46.1443 21.9307 47.0377 21.9251 47.5891 22.4906C48.1379 23.0504 48.1379 23.9602 47.5836 24.5173C37.8233 34.3737 27.0684 39.479 18.385 42.1335H46.5882C47.3686 42.1335 48 42.7745 48 43.5667ZM41.4044 12.9001C41.8456 12.9001 42.2812 12.6901 42.5542 12.2982C43.0974 11.5228 43.6379 10.7278 44.1783 9.91599C44.6167 9.25815 44.4458 8.36795 43.8006 7.92565C43.1581 7.48057 42.2785 7.6541 41.8401 8.30916C41.3107 9.10416 40.7813 9.88239 40.2546 10.6354C39.8024 11.2821 39.9513 12.1778 40.5855 12.6341C40.8337 12.8133 41.1204 12.9001 41.4044 12.9001ZM45.3254 5.51821C45.557 5.66096 45.8134 5.73096 46.0671 5.73096C46.5386 5.73096 47.0018 5.49023 47.2693 5.05073L47.7932 4.18295C48.1985 3.50832 47.989 2.62652 47.3244 2.21222C46.6654 1.79792 45.7941 2.00787 45.3833 2.68812L44.8649 3.54472C44.4568 4.21936 44.6608 5.1011 45.3254 5.51821ZM36.2592 19.7248C36.6645 19.7248 37.0671 19.5485 37.3456 19.2069C37.9412 18.4791 38.5368 17.7261 39.1406 16.9507C39.6232 16.3292 39.5184 15.4278 38.9062 14.938C38.2969 14.4509 37.409 14.5573 36.9237 15.1759C36.3364 15.9345 35.7518 16.6651 35.1728 17.3762C34.6737 17.9864 34.7592 18.8906 35.3575 19.3945C35.6222 19.6156 35.9421 19.7248 36.2592 19.7248ZM17.3189 36.7083C17.5643 36.7083 17.8097 36.644 18.0358 36.5096C18.8327 36.0337 19.6517 35.5186 20.4871 34.9615C21.1379 34.5276 21.3198 33.6403 20.8924 32.9768C20.4623 32.3106 19.5882 32.1314 18.9375 32.5653C18.1406 33.0944 17.3603 33.5871 16.602 34.0406C15.932 34.4409 15.7058 35.3199 16.1029 36.0029C16.3649 36.4564 16.8364 36.7083 17.3189 36.7083ZM30.5735 26.0877C30.9347 26.0877 31.2987 25.9477 31.5744 25.665C32.2307 24.9959 32.8952 24.2989 33.5652 23.5739C34.0974 22.9972 34.0671 22.0902 33.4991 21.5472C32.9338 21.0125 32.0404 21.0349 31.5027 21.6144C30.8548 22.317 30.2123 22.9916 29.5726 23.6439C29.0239 24.2037 29.0239 25.1107 29.5781 25.6706C29.8539 25.9477 30.2123 26.0877 30.5735 26.0877ZM9.67281 40.3783C9.82997 40.3783 9.99266 40.3502 10.1498 40.2943C11.0019 39.9835 11.909 39.6224 12.8631 39.1969C13.5772 38.8778 13.9026 38.0324 13.5883 37.3074C13.2739 36.5824 12.4412 36.2632 11.727 36.5711C10.8392 36.9686 9.99266 37.3074 9.19581 37.5957C8.46234 37.8616 8.08184 38.6819 8.34378 39.4293C8.55057 40.0143 9.09376 40.3783 9.67281 40.3783ZM24.2785 31.8235C24.5873 31.8235 24.8989 31.7227 25.1581 31.5128C25.886 30.9221 26.625 30.3006 27.375 29.64C27.9623 29.1193 28.0257 28.2151 27.5156 27.6161C27 27.0198 26.1121 26.9554 25.5221 27.4733C24.8051 28.106 24.0993 28.7051 23.3989 29.2677C22.7895 29.7604 22.6875 30.6618 23.1728 31.2832C23.4513 31.6387 23.8649 31.8235 24.2785 31.8235Z" fill="#4741A6"/>
</svg>
